<svg width="216" height="56" viewBox="0 0 216 56" fill="none" xmlns="http://www.w3.org/2000/svg">
<path d="M27.3686 6.68634L45.2799 37.7097H9.45723L27.3686 6.68634Z" fill="#9F28CB"/>
<path d="M18.687 8.86293L48.1648 29.2179L15.798 44.5689L18.687 8.86293Z" fill="#7E98F5" fill-opacity="0.8"/>
<path d="M67.5665 36.5499H62.6153V11.838H64.5196L67.5665 16.9796V36.5499ZM76.8975 15.544C76.8975 15.9151 76.8243 16.2667 76.6778 16.5987C76.5411 16.9308 76.3506 17.2188 76.1065 17.463C75.8624 17.7071 75.5743 17.9024 75.2422 18.0489C74.9102 18.1856 74.5587 18.254 74.1876 18.254C73.8165 18.254 73.4649 18.1856 73.1329 18.0489C72.8106 17.9024 72.5274 17.7071 72.2833 17.463C72.0391 17.2188 71.8438 16.9308 71.6973 16.5987C71.5606 16.2667 71.4922 15.9151 71.4922 15.544C71.4922 15.1729 71.5606 14.8263 71.6973 14.504C71.8438 14.172 72.0391 13.8839 72.2833 13.6397C72.5274 13.3956 72.8106 13.2052 73.1329 13.0685C73.4649 12.922 73.8165 12.8487 74.1876 12.8487C74.5587 12.8487 74.9102 12.922 75.2422 13.0685C75.5743 13.2052 75.8624 13.3956 76.1065 13.6397C76.3506 13.8839 76.5411 14.172 76.6778 14.504C76.8243 14.8263 76.8975 15.1729 76.8975 15.544ZM76.6778 36.5499H71.712V19.6456H76.6778V36.5499ZM89.5391 36.5499H85.086L78.9337 19.631H83.8848L88.3965 33.1075L92.7764 19.631H96.2042L89.5391 36.5499ZM117.781 20.6856L115.276 21.7403C115.081 21.1056 114.817 20.5245 114.485 19.9972C114.163 19.4698 113.773 19.0206 113.314 18.6495C112.864 18.2686 112.352 17.9757 111.775 17.7706C111.199 17.5558 110.569 17.4483 109.886 17.4483C109.153 17.4483 108.48 17.5704 107.864 17.8145C107.259 18.0489 106.712 18.3761 106.224 18.796C105.745 19.2159 105.325 19.7042 104.964 20.2608C104.603 20.8175 104.3 21.4132 104.056 22.0479C103.812 22.6729 103.631 23.3224 103.514 23.9962C103.397 24.67 103.338 25.3292 103.338 25.9737C103.338 26.9991 103.455 28.0196 103.69 29.0352C103.934 30.0509 104.315 30.964 104.832 31.7745C105.359 32.5851 106.038 33.2442 106.868 33.752C107.698 34.2501 108.704 34.4991 109.886 34.4991C110.511 34.4991 111.102 34.3966 111.658 34.1915C112.215 33.9767 112.718 33.6886 113.167 33.3272C113.626 32.9561 114.026 32.5216 114.368 32.0235C114.71 31.5255 114.983 30.9884 115.189 30.4122L117.723 31.4229C117.352 32.3507 116.844 33.1661 116.199 33.8692C115.555 34.5626 114.817 35.1388 113.987 35.5977C113.167 36.0567 112.283 36.3985 111.336 36.6231C110.398 36.8575 109.451 36.9747 108.494 36.9747C107.459 36.9747 106.463 36.8477 105.506 36.5938C104.559 36.3399 103.675 35.9786 102.855 35.5099C102.034 35.0411 101.287 34.4747 100.613 33.8106C99.9493 33.1466 99.378 32.4093 98.8995 31.5987C98.4307 30.7882 98.0645 29.9093 97.8008 28.962C97.5469 28.005 97.42 27.0089 97.42 25.9737C97.42 24.9386 97.5469 23.9474 97.8008 23.0001C98.0645 22.0431 98.4307 21.1593 98.8995 20.3487C99.378 19.5284 99.9493 18.7862 100.613 18.1222C101.287 17.4581 102.034 16.8917 102.855 16.4229C103.675 15.9542 104.559 15.5929 105.506 15.339C106.463 15.0851 107.459 14.9581 108.494 14.9581C109.49 14.9581 110.462 15.0753 111.409 15.3097C112.366 15.544 113.255 15.9005 114.075 16.379C114.896 16.8477 115.623 17.4435 116.258 18.1661C116.902 18.879 117.41 19.7188 117.781 20.6856ZM138.729 28.0538C138.729 28.9327 138.611 29.7579 138.377 30.5294C138.143 31.3009 137.815 32.0138 137.396 32.6681C136.985 33.3224 136.487 33.9132 135.901 34.4405C135.315 34.9581 134.671 35.3976 133.968 35.7589C133.274 36.1202 132.527 36.3985 131.727 36.5938C130.936 36.7892 130.12 36.8868 129.28 36.8868C128.44 36.8868 127.625 36.7892 126.834 36.5938C126.043 36.3985 125.296 36.1202 124.593 35.7589C123.899 35.3976 123.26 34.9581 122.674 34.4405C122.088 33.9132 121.585 33.3224 121.165 32.6681C120.755 32.0138 120.433 31.3009 120.198 30.5294C119.964 29.7481 119.847 28.9229 119.847 28.0538C119.847 27.1847 119.964 26.3643 120.198 25.5929C120.433 24.8116 120.755 24.0938 121.165 23.4395C121.585 22.7852 122.088 22.1993 122.674 21.6817C123.26 21.1544 123.899 20.7101 124.593 20.3487C125.296 19.9874 126.043 19.7091 126.834 19.5138C127.625 19.3185 128.44 19.2208 129.28 19.2208C130.12 19.2208 130.936 19.3185 131.727 19.5138C132.527 19.7091 133.274 19.9874 133.968 20.3487C134.671 20.7101 135.315 21.1544 135.901 21.6817C136.487 22.1993 136.985 22.7852 137.396 23.4395C137.815 24.0938 138.143 24.8116 138.377 25.5929C138.611 26.3643 138.729 27.1847 138.729 28.0538ZM133.69 28.0538C133.69 27.5851 133.66 27.0919 133.602 26.5743C133.553 26.047 133.465 25.5343 133.338 25.0362C133.211 24.5284 133.035 24.045 132.811 23.586C132.596 23.1173 132.327 22.712 132.005 22.3702C131.683 22.0186 131.297 21.7403 130.848 21.5352C130.398 21.3204 129.876 21.213 129.28 21.213C128.714 21.213 128.211 21.3204 127.772 21.5352C127.332 21.7501 126.946 22.0382 126.614 22.3995C126.292 22.7511 126.019 23.1612 125.794 23.63C125.579 24.0987 125.403 24.587 125.267 25.0948C125.13 25.5929 125.032 26.1007 124.974 26.6183C124.915 27.1261 124.886 27.6046 124.886 28.0538C124.886 28.503 124.915 28.9864 124.974 29.504C125.032 30.0118 125.13 30.5196 125.267 31.0274C125.403 31.5352 125.579 32.0235 125.794 32.4923C126.019 32.9513 126.292 33.3614 126.614 33.7227C126.946 34.0743 127.332 34.3575 127.772 34.5724C128.211 34.7872 128.714 34.8946 129.28 34.8946C129.866 34.8946 130.384 34.7921 130.833 34.587C131.282 34.3722 131.668 34.089 131.99 33.7374C132.322 33.3858 132.596 32.9806 132.811 32.5216C133.025 32.0626 133.196 31.5792 133.323 31.0714C133.46 30.5636 133.553 30.0509 133.602 29.5333C133.66 29.0157 133.69 28.5226 133.69 28.0538ZM146.815 36.5499H141.863V11.838H143.768L146.815 16.9796V36.5499ZM155.897 36.5499H150.945V11.838H152.85L155.897 16.9796V36.5499ZM177.064 36.5499H172.112V34.5284C171.526 35.3292 170.818 35.9249 169.988 36.3155C169.168 36.6964 168.265 36.8868 167.278 36.8868C165.989 36.8868 164.837 36.6573 163.821 36.1983C162.806 35.7393 161.946 35.1143 161.243 34.3233C160.54 33.5226 160.003 32.5851 159.632 31.5108C159.261 30.4366 159.075 29.2843 159.075 28.0538C159.075 26.8233 159.261 25.671 159.632 24.5968C160.003 23.5226 160.54 22.5899 161.243 21.7989C161.946 20.9981 162.806 20.3683 163.821 19.9093C164.837 19.4503 165.989 19.2208 167.278 19.2208C167.933 19.2208 168.553 19.3185 169.139 19.5138C169.734 19.7091 170.276 19.9874 170.765 20.3487C171.263 20.7003 171.697 21.13 172.068 21.6378C172.449 22.1358 172.747 22.6925 172.962 23.3077L175.159 19.631H177.064V36.5499ZM172.083 28.0538C172.083 27.6143 172.059 27.1505 172.01 26.6622C171.971 26.1739 171.898 25.6905 171.79 25.212C171.683 24.7335 171.531 24.2794 171.336 23.8497C171.15 23.4102 170.906 23.0245 170.604 22.6925C170.311 22.3507 169.954 22.0821 169.534 21.8868C169.114 21.6915 168.626 21.5938 168.069 21.5938C167.513 21.5938 167.029 21.6964 166.619 21.9015C166.209 22.0968 165.857 22.3653 165.565 22.7071C165.272 23.0392 165.027 23.4249 164.832 23.8643C164.647 24.3038 164.5 24.7628 164.393 25.2413C164.285 25.7198 164.207 26.2032 164.158 26.6915C164.119 27.17 164.1 27.6241 164.1 28.0538C164.1 28.4835 164.119 28.9425 164.158 29.4308C164.207 29.919 164.285 30.4024 164.393 30.881C164.5 31.3595 164.647 31.8185 164.832 32.2579C165.027 32.6974 165.272 33.088 165.565 33.4298C165.857 33.7618 166.209 34.0304 166.619 34.2354C167.029 34.4308 167.513 34.5284 168.069 34.5284C168.577 34.5284 169.026 34.4259 169.417 34.2208C169.817 34.006 170.164 33.7227 170.457 33.3712C170.76 33.0196 171.014 32.6192 171.219 32.17C171.424 31.7208 171.59 31.2569 171.717 30.7784C171.844 30.2999 171.937 29.8263 171.995 29.3575C172.054 28.879 172.083 28.4444 172.083 28.0538ZM199.197 28.1124C199.197 29.3429 199.012 30.4952 198.641 31.5694C198.27 32.6436 197.732 33.5811 197.029 34.3819C196.326 35.1729 195.467 35.7979 194.451 36.2569C193.436 36.7159 192.283 36.9454 190.994 36.9454C190.34 36.9454 189.715 36.8477 189.119 36.6524C188.533 36.4571 187.991 36.1837 187.493 35.8321C187.005 35.4708 186.57 35.0411 186.19 34.5431C185.818 34.045 185.525 33.4884 185.311 32.8731L183.113 36.5499H181.209V13.4054H186.16V21.6524C186.746 20.8419 187.449 20.2462 188.27 19.8653C189.1 19.4845 190.008 19.294 190.994 19.294C192.283 19.294 193.436 19.5235 194.451 19.9825C195.467 20.4415 196.326 21.0665 197.029 21.8575C197.732 22.6485 198.27 23.5811 198.641 24.6554C199.012 25.7296 199.197 26.8819 199.197 28.1124ZM194.173 28.1124C194.173 27.6827 194.148 27.2286 194.1 26.7501C194.061 26.2618 193.987 25.7784 193.88 25.2999C193.773 24.8214 193.621 24.3624 193.426 23.9229C193.24 23.4835 193.001 23.0977 192.708 22.7657C192.415 22.4239 192.064 22.1554 191.653 21.9601C191.243 21.755 190.76 21.6524 190.203 21.6524C189.695 21.6524 189.241 21.7599 188.841 21.9747C188.45 22.1798 188.104 22.4581 187.801 22.8097C187.508 23.1612 187.259 23.5616 187.054 24.0108C186.849 24.4601 186.683 24.9239 186.556 25.4024C186.429 25.881 186.336 26.3546 186.277 26.8233C186.219 27.2921 186.19 27.7218 186.19 28.1124C186.19 28.5518 186.209 29.0157 186.248 29.504C186.297 29.9923 186.375 30.4806 186.482 30.9688C186.59 31.4474 186.736 31.9063 186.922 32.3458C187.117 32.7755 187.361 33.1612 187.654 33.503C187.957 33.8351 188.314 34.0987 188.724 34.294C189.144 34.4893 189.637 34.587 190.203 34.587C190.75 34.587 191.229 34.4893 191.639 34.294C192.059 34.089 192.415 33.8204 192.708 33.4884C193.001 33.1466 193.24 32.756 193.426 32.3165C193.621 31.8673 193.773 31.4034 193.88 30.9249C193.987 30.4464 194.061 29.9679 194.1 29.4893C194.148 29.0011 194.173 28.5421 194.173 28.1124Z" fill="#890DBE"/>
</svg>
